<?xml version="1.0" encoding="UTF-8" standalone="no"?>
<!-- icon666.com - MILLIONS vector ICONS FREE -->

<svg
   viewBox="0 0 195 195"
   version="1.1"
   id="svg8"
   sodipodi:docname="557ef28e0ffe4a6c7f057821333c92fa.svg"
   width="195"
   height="195"
   xmlns:inkscape="http://www.inkscape.org/namespaces/inkscape"
   xmlns:sodipodi="http://sodipodi.sourceforge.net/DTD/sodipodi-0.dtd"
   xmlns="http://www.w3.org/2000/svg"
   xmlns:svg="http://www.w3.org/2000/svg">
  <defs
     id="defs12" />
  <sodipodi:namedview
     id="namedview10"
     pagecolor="#ffffff"
     bordercolor="#666666"
     borderopacity="1.0"
     inkscape:pageshadow="2"
     inkscape:pageopacity="0.0"
     inkscape:pagecheckerboard="0" />
  <g
     id="Layer_2"
     data-name="Layer 2">
    <g
       id="_16.p"
       data-name="16.p">
      <path
         d="m 97.27,68.26 q -7,0 -9.38,5 v 25 q 2.58,5.28 9.49,5.28 9.44,0 9.73,-16.29 v -2.11 q 0,-16.87 -9.84,-16.88 z"
         id="path2" />
      <path
         d="M 97.5,0 A 97.5,97.5 0 0 0 0,97.5 97.5,97.5 0 0 0 97.5,195 97.5,97.5 0 0 0 195,97.5 97.5,97.5 0 0 0 97.5,0 Z m 29.36,86.37 q 0,14.76 -6.65,23.58 a 21.33,21.33 0 0 1 -18,8.82 18.28,18.28 0 0 1 -14.36,-6.39 V 142 H 68.14 V 54.2 H 86.6 l 0.59,5.86 a 18.27,18.27 0 0 1 14.94,-7 q 11.72,0 18.22,8.64 6.5,8.64 6.51,23.76 z"
         id="path4" />
    </g>
  </g>
</svg>
